<svg xmlns="http://www.w3.org/2000/svg" version="1.1" xmlns:xlink="http://www.w3.org/1999/xlink" xmlns:svgjs="http://svgjs.dev/svgjs" width="1500" height="257" viewBox="0 0 1500 257"><g transform="matrix(1,0,0,1,-0.9090909090909918,0.3399091275823878)"><svg viewBox="0 0 396 68" data-background-color="#ffffff" preserveAspectRatio="xMidYMid meet" height="257" width="1500" xmlns="http://www.w3.org/2000/svg" xmlns:xlink="http://www.w3.org/1999/xlink"><g id="tight-bounds" transform="matrix(1,0,0,1,0.2400000000000091,-0.08993704543036074)"><svg viewBox="0 0 395.52 68.17987409086071" height="68.17987409086071" width="395.52"><g><svg viewBox="0 0 474.5077321202447 81.7958066117975" height="68.17987409086071" width="395.52"><g transform="matrix(1,0,0,1,78.98773212024476,7.647034750394802)"><svg viewBox="0 0 395.52 66.5017371110079" height="66.5017371110079" width="395.52"><g id="textblocktransform"><svg viewBox="0 0 395.52 66.5017371110079" height="66.5017371110079" width="395.52" id="textblock"><g><svg viewBox="0 0 395.52 66.5017371110079" height="66.5017371110079" width="395.52"><g transform="matrix(1,0,0,1,0,0)"><svg width="395.52" viewBox="2.25 -35.6 215.28 36.2" height="66.5017371110079" data-palette-color="#001f3f"><path d="M15.25-35L22.15-35 22.15-16.05Q22.15-13.25 22.48-11.78 22.8-10.3 23.8-8.43 24.8-6.55 25.18-6.55 25.55-6.55 26.55-8.43 27.55-10.3 27.9-11.78 28.25-13.25 28.25-16.05L28.25-16.05 28.25-21.4Q28.25-25.6 27.68-27.28 27.1-28.95 25.25-31.4L25.25-31.4 31.25-35.6Q32.85-34.5 34-31.5 35.15-28.5 35.15-24.3L35.15-24.3 35.15-16.05Q35.15-12.15 34.4-9.63 33.65-7.1 30.28-3.25 26.9 0.6 25.2 0.6L25.2 0.6Q24.15 0.6 22.28-1.3 20.4-3.2 18.7-5.75L18.7-5.75Q16.9-3.15 15.08-1.28 13.25 0.6 12.2 0.6L12.2 0.6Q10.5 0.6 7.13-3.25 3.75-7.1 3-9.63 2.25-12.15 2.25-16.05L2.25-16.05 2.25-35 9.15-35 9.15-16.05Q9.15-12.8 9.5-11.55 9.85-10.3 10.85-8.43 11.85-6.55 12.23-6.55 12.6-6.55 13.6-8.43 14.6-10.3 14.93-11.78 15.25-13.25 15.25-16.05L15.25-16.05 15.25-35ZM53.87-2.68Q50.3 0.6 48.5 0.6 46.7 0.6 43.12-2.68 39.55-5.95 38.7-8L38.7-8Q38.15-9.3 38.15-14.55L38.15-14.55 38.15-20.45Q38.15-25.7 38.7-27L38.7-27Q39.55-29.05 43.12-32.33 46.7-35.6 48.5-35.6 50.3-35.6 53.87-32.33 57.45-29.05 58.3-27L58.3-27Q58.85-25.7 58.85-20.45L58.85-20.45 58.85-14.55Q58.85-9.3 58.3-8L58.3-8Q57.45-5.95 53.87-2.68ZM46.82-7.58Q47.8-6.55 48.5-6.55 49.2-6.55 50.17-7.58 51.15-8.6 51.55-9.53 51.95-10.45 51.95-14.55L51.95-14.55 51.95-20.45Q51.95-24.55 51.55-25.48 51.15-26.4 50.17-27.43 49.2-28.45 48.5-28.45 47.8-28.45 46.82-27.43 45.85-26.4 45.45-25.48 45.05-24.55 45.05-20.45L45.05-20.45 45.05-14.55Q45.05-10.45 45.45-9.53 45.85-8.6 46.82-7.58ZM69.09-32.85L69.09-32.85Q73.09-35.6 74.55-35.6 76-35.6 79.02-32.98 82.05-30.35 82.8-29.28 83.55-28.2 83.55-26.45L83.55-26.45Q83.55-23.05 83-22.4L83-22.4Q81.95-20.8 79.75-18.65L79.75-18.65Q82.8-15.75 83.55-14.2L83.55-14.2Q83.95-13.15 84.4-7.83 84.84-2.5 84.84 0L84.84 0 77.34 0Q77.34-2.25 76.95-7.05 76.55-11.85 76.07-12.85 75.59-13.85 74.95-14.6L74.95-14.6 70.5-14.6 70.5 0 63.6 0 63.6-21.9Q63.6-25.95 63.02-27.53 62.45-29.1 60.6-31.4L60.6-31.4 66.59-35.6Q68.2-34.55 69.09-32.85ZM70.5-24.3L70.5-24.3 70.5-20.45 72.45-20.45Q73.15-20.45 74.25-21.55 75.34-22.65 75.67-23.43 76-24.2 76-25.05 76-25.9 75.67-26.58 75.34-27.25 74.75-28.1 74.15-28.95 73.75-28.95L73.75-28.95Q72.4-28.95 70.34-28.3L70.34-28.3Q70.5-26.35 70.5-24.3ZM94.44-6L105.79-6 105.79 0 87.54 0 87.54-35 94.44-35 94.44-6ZM115.24-33L115.24-33Q118.54-35.6 120.24-35.6 121.94-35.6 125.52-32.33 129.09-29.05 129.94-27L129.94-27Q130.49-25.7 130.49-20.45L130.49-20.45 130.49-14.55Q130.49-9.3 129.94-8L129.94-8Q129.04-6.05 125.59-3.03 122.14 0 120.14 0L120.14 0 109.79 0 109.79-21.4Q109.79-25.45 109.22-27.1 108.64-28.75 106.79-31L106.79-31 113.39-35.6Q114.44-34.8 115.24-33ZM120.14-28.45L120.14-28.45Q118.69-28.45 116.54-27.5L116.54-27.5Q116.69-26.45 116.69-24.3L116.69-24.3 116.69-6.05 120.14-6.05Q120.84-6.05 121.82-7.08 122.79-8.1 123.19-9.03 123.59-9.95 123.59-14.05L123.59-14.05 123.59-20.45Q123.59-24.55 123.19-25.48 122.79-26.4 121.82-27.43 120.84-28.45 120.14-28.45ZM133.59-35L153.49-35 153.49-29 146.99-29 146.99 0 140.09 0 140.09-29 133.59-29 133.59-35ZM163.09-32.85L163.09-32.85Q167.09-35.6 168.53-35.6 169.99-35.6 173.01-32.98 176.04-30.35 176.79-29.28 177.54-28.2 177.54-26.45L177.54-26.45Q177.54-23.05 176.99-22.4L176.99-22.4Q175.94-20.8 173.74-18.65L173.74-18.65Q176.79-15.75 177.54-14.2L177.54-14.2Q177.94-13.15 178.39-7.83 178.84-2.5 178.84 0L178.84 0 171.34 0Q171.34-2.25 170.94-7.05 170.53-11.85 170.06-12.85 169.59-13.85 168.94-14.6L168.94-14.6 164.49-14.6 164.49 0 157.59 0 157.59-21.9Q157.59-25.95 157.01-27.53 156.44-29.1 154.59-31.4L154.59-31.4 160.59-35.6Q162.19-34.55 163.09-32.85ZM164.49-24.3L164.49-24.3 164.49-20.45 166.44-20.45Q167.14-20.45 168.24-21.55 169.34-22.65 169.66-23.43 169.99-24.2 169.99-25.05 169.99-25.9 169.66-26.58 169.34-27.25 168.74-28.1 168.14-28.95 167.74-28.95L167.74-28.95Q166.39-28.95 164.34-28.3L164.34-28.3Q164.49-26.35 164.49-24.3ZM190.48 0L183.58 0 183.58-35 190.48-35 190.48 0ZM205.93-10.5L205.93-16.95 206.93-16.95Q207.88-16.95 209.16-17.88 210.43-18.8 210.78-19.9 211.13-21 211.13-22.85 211.13-24.7 210.78-25.93 210.43-27.15 209.16-28.05 207.88-28.95 206.71-28.95 205.53-28.95 203.53-27.65L203.53-27.65Q203.68-26 203.68-24.3L203.68-24.3 203.68 0 196.78 0 196.78-21.4Q196.78-25.6 196.21-27.33 195.63-29.05 193.78-31.35L193.78-31.35 199.78-35.6Q201.08-34.7 202.08-32.65L202.08-32.65Q206.18-35.6 207.93-35.6 209.68-35.6 212.78-32.8 215.88-30 216.98-28.1L216.98-28.1Q217.53-27.4 217.53-23.25 217.53-19.1 216.98-18L216.98-18Q215.88-16.1 212.78-13.3 209.68-10.5 207.93-10.5L207.93-10.5 205.93-10.5Z" opacity="1" transform="matrix(1,0,0,1,0,0)" fill="#001f3f" class="wordmark-text-0" data-fill-palette-color="primary" id="text-0"></path></svg></g></svg></g></svg></g></svg></g><g><svg viewBox="0 0 63.28826803002646 81.7958066117975" height="81.7958066117975" width="63.28826803002646"><g><svg xmlns="http://www.w3.org/2000/svg" xmlns:xlink="http://www.w3.org/1999/xlink" version="1.1" x="0" y="0" viewBox="11.452907485383136 0.18319745593316278 77.09324248441663 99.63780254406683" enable-background="new 0 0 100 100" xml:space="preserve" height="81.7958066117975" width="63.28826803002646" class="icon-icon-0" data-fill-palette-color="accent" id="icon-0"></svg></g></svg></g></svg></g><defs></defs><mask id="b1a59ccb-9403-4373-92da-4f48ab2b190b"><g id="SvgjsG1009"><svg viewBox="0 0 395.52 68.17987409086071" height="68.17987409086071" width="395.52"><g><svg viewBox="0 0 474.5077321202447 81.7958066117975" height="68.17987409086071" width="395.52"><g transform="matrix(1,0,0,1,78.98773212024476,7.647034750394802)"><svg viewBox="0 0 395.52 66.5017371110079" height="66.5017371110079" width="395.52"><g id="SvgjsG1008"><svg viewBox="0 0 395.52 66.5017371110079" height="66.5017371110079" width="395.52" id="SvgjsSvg1007"><g><svg viewBox="0 0 395.52 66.5017371110079" height="66.5017371110079" width="395.52"><g transform="matrix(1,0,0,1,0,0)"><svg width="395.52" viewBox="2.25 -35.6 215.28 36.2" height="66.5017371110079" data-palette-color="#001f3f"><path d="M15.25-35L22.15-35 22.15-16.05Q22.15-13.25 22.48-11.78 22.8-10.3 23.8-8.43 24.8-6.55 25.18-6.55 25.55-6.55 26.55-8.43 27.55-10.3 27.9-11.78 28.25-13.25 28.25-16.05L28.25-16.05 28.25-21.4Q28.25-25.6 27.68-27.28 27.1-28.95 25.25-31.4L25.25-31.4 31.25-35.6Q32.85-34.5 34-31.5 35.15-28.5 35.15-24.3L35.15-24.3 35.15-16.05Q35.15-12.15 34.4-9.63 33.65-7.1 30.28-3.25 26.9 0.6 25.2 0.6L25.2 0.6Q24.15 0.6 22.28-1.3 20.4-3.2 18.7-5.75L18.7-5.75Q16.9-3.15 15.08-1.28 13.25 0.6 12.2 0.6L12.2 0.6Q10.5 0.6 7.13-3.25 3.75-7.1 3-9.63 2.25-12.15 2.25-16.05L2.25-16.05 2.25-35 9.15-35 9.15-16.05Q9.15-12.8 9.5-11.55 9.85-10.3 10.85-8.43 11.85-6.55 12.23-6.55 12.6-6.55 13.6-8.43 14.6-10.3 14.93-11.78 15.25-13.25 15.25-16.05L15.25-16.05 15.25-35ZM53.87-2.68Q50.3 0.6 48.5 0.6 46.7 0.6 43.12-2.68 39.55-5.95 38.7-8L38.7-8Q38.15-9.3 38.15-14.55L38.15-14.55 38.15-20.45Q38.15-25.7 38.7-27L38.7-27Q39.55-29.05 43.12-32.33 46.7-35.6 48.5-35.6 50.3-35.6 53.87-32.33 57.45-29.05 58.3-27L58.3-27Q58.85-25.7 58.85-20.45L58.85-20.45 58.85-14.55Q58.85-9.3 58.3-8L58.3-8Q57.45-5.95 53.87-2.68ZM46.82-7.58Q47.8-6.55 48.5-6.55 49.2-6.55 50.17-7.58 51.15-8.6 51.55-9.53 51.95-10.45 51.95-14.55L51.95-14.55 51.95-20.45Q51.95-24.55 51.55-25.48 51.15-26.4 50.17-27.43 49.2-28.45 48.5-28.45 47.8-28.45 46.82-27.43 45.85-26.4 45.45-25.48 45.05-24.55 45.05-20.45L45.05-20.45 45.05-14.55Q45.05-10.45 45.45-9.53 45.85-8.6 46.82-7.58ZM69.09-32.85L69.09-32.85Q73.09-35.6 74.55-35.6 76-35.6 79.02-32.98 82.05-30.35 82.8-29.28 83.55-28.2 83.55-26.45L83.55-26.45Q83.55-23.05 83-22.4L83-22.4Q81.95-20.8 79.75-18.65L79.75-18.65Q82.8-15.75 83.55-14.2L83.55-14.2Q83.95-13.15 84.4-7.83 84.84-2.5 84.84 0L84.84 0 77.34 0Q77.34-2.25 76.95-7.05 76.55-11.85 76.07-12.85 75.59-13.85 74.95-14.6L74.95-14.6 70.5-14.6 70.5 0 63.6 0 63.6-21.9Q63.6-25.95 63.02-27.53 62.45-29.1 60.6-31.4L60.6-31.4 66.59-35.6Q68.2-34.55 69.09-32.85ZM70.5-24.3L70.5-24.3 70.5-20.45 72.45-20.45Q73.15-20.45 74.25-21.55 75.34-22.65 75.67-23.43 76-24.2 76-25.05 76-25.9 75.67-26.58 75.34-27.25 74.75-28.1 74.15-28.95 73.75-28.95L73.75-28.95Q72.4-28.95 70.34-28.3L70.34-28.3Q70.5-26.35 70.5-24.3ZM94.44-6L105.79-6 105.79 0 87.54 0 87.54-35 94.44-35 94.44-6ZM115.24-33L115.24-33Q118.54-35.6 120.24-35.6 121.94-35.6 125.52-32.33 129.09-29.05 129.94-27L129.94-27Q130.49-25.7 130.49-20.45L130.49-20.45 130.49-14.55Q130.49-9.3 129.94-8L129.94-8Q129.04-6.05 125.59-3.03 122.14 0 120.14 0L120.14 0 109.79 0 109.79-21.4Q109.79-25.45 109.22-27.1 108.64-28.75 106.79-31L106.79-31 113.39-35.6Q114.44-34.8 115.24-33ZM120.14-28.45L120.14-28.45Q118.69-28.45 116.54-27.5L116.54-27.5Q116.69-26.45 116.69-24.3L116.69-24.3 116.69-6.05 120.14-6.05Q120.84-6.05 121.82-7.08 122.79-8.1 123.19-9.03 123.59-9.95 123.59-14.05L123.59-14.05 123.59-20.45Q123.59-24.55 123.19-25.48 122.79-26.4 121.82-27.43 120.84-28.45 120.14-28.45ZM133.59-35L153.49-35 153.49-29 146.99-29 146.99 0 140.09 0 140.09-29 133.59-29 133.59-35ZM163.09-32.85L163.09-32.85Q167.09-35.6 168.53-35.6 169.99-35.6 173.01-32.98 176.04-30.35 176.79-29.28 177.54-28.2 177.54-26.45L177.54-26.45Q177.54-23.05 176.99-22.4L176.99-22.4Q175.94-20.8 173.74-18.65L173.74-18.65Q176.79-15.75 177.54-14.2L177.54-14.2Q177.94-13.15 178.39-7.83 178.84-2.5 178.84 0L178.84 0 171.34 0Q171.34-2.25 170.94-7.05 170.53-11.85 170.06-12.85 169.59-13.85 168.94-14.6L168.94-14.6 164.49-14.6 164.49 0 157.59 0 157.59-21.9Q157.59-25.95 157.01-27.53 156.44-29.1 154.59-31.4L154.59-31.4 160.59-35.6Q162.19-34.55 163.09-32.85ZM164.49-24.3L164.49-24.3 164.49-20.45 166.44-20.45Q167.14-20.45 168.24-21.55 169.34-22.65 169.66-23.43 169.99-24.2 169.99-25.05 169.99-25.9 169.66-26.58 169.34-27.25 168.74-28.1 168.14-28.95 167.74-28.95L167.74-28.95Q166.39-28.95 164.34-28.3L164.34-28.3Q164.49-26.35 164.49-24.3ZM190.48 0L183.58 0 183.58-35 190.48-35 190.48 0ZM205.93-10.5L205.93-16.95 206.93-16.95Q207.88-16.95 209.16-17.88 210.43-18.8 210.78-19.9 211.13-21 211.13-22.85 211.13-24.7 210.78-25.93 210.43-27.15 209.16-28.05 207.88-28.95 206.71-28.95 205.53-28.95 203.53-27.65L203.53-27.65Q203.68-26 203.68-24.3L203.68-24.3 203.68 0 196.78 0 196.78-21.4Q196.78-25.6 196.21-27.33 195.63-29.05 193.78-31.35L193.78-31.35 199.78-35.6Q201.08-34.7 202.08-32.65L202.08-32.65Q206.18-35.6 207.93-35.6 209.68-35.6 212.78-32.8 215.88-30 216.98-28.1L216.98-28.1Q217.53-27.4 217.53-23.25 217.53-19.1 216.98-18L216.98-18Q215.88-16.1 212.78-13.3 209.68-10.5 207.93-10.5L207.93-10.5 205.93-10.5Z" opacity="1" transform="matrix(1,0,0,1,0,0)" fill="black" class="wordmark-text-0" id="SvgjsPath1006"></path></svg></g></svg></g></svg></g></svg></g><g><svg viewBox="0 0 63.28826803002646 81.7958066117975" height="81.7958066117975" width="63.28826803002646"><g><svg xmlns="http://www.w3.org/2000/svg" xmlns:xlink="http://www.w3.org/1999/xlink" version="1.1" x="0" y="0" viewBox="11.452907485383136 0.18319745593316278 77.09324248441663 99.63780254406683" enable-background="new 0 0 100 100" xml:space="preserve" height="81.7958066117975" width="63.28826803002646" class="icon-icon-0" data-fill-palette-color="accent" id="SvgjsSvg1005"><path d="M82.511 27.412c-0.153-0.45-0.335-0.918-0.542-1.396-0.309-1.83-1.747-5.274-1.766-5.313l-0.298-0.659c-0.651-1.429-1.391-3.047-1.525-4.437-0.104-1.073 1.284-6.627 1.951-9.297 1.232-4.926 1.362-5.439-0.14-5.982-0.063-0.023-0.339-0.117-0.695-0.087-0.002 0-0.006-0.001-0.009-0.002-1.432-0.309-2.96 0.686-5.537 2.471-0.451 0.312-1.042 0.721-1.599 1.081 0.194-0.91 0.166-2.092-0.995-3.021-1.473-1.179-3.561 0.025-6.72 1.851-0.885 0.512-2.206 1.277-3.088 1.671-0.698-1.148-1.984-2.393-4.411-1.901-1.373 0.278-2.967 1.482-5.24 3.29-0.594 0.472-1.365 1.083-2.006 1.543-0.01-0.414-0.058-0.866-0.225-1.31-0.799-2.107-2.104-2.776-3.059-2.966-3.087-0.618-6.411 2.896-9.074 5.721-0.167 0.178-0.341 0.361-0.512 0.541-0.771-1.276-1.738-2.592-3.159-2.841-1.37-0.249-7.019 1.107-12.253 5.707-4.985 4.38-10.784 12.835-10.101 28.248 0.189 4.247 2.483 41.865 24.748 55.107 4.921 2.929 10.396 4.39 16.39 4.39 7.176 0 15.095-2.097 23.695-6.287C99.438 82.278 82.694 27.953 82.511 27.412zM74.902 90.58c-14.725 7.176-27.163 7.86-36.969 2.026C17.15 80.245 14.969 44.241 14.789 40.177c-0.458-10.333 2.045-18.458 7.441-24.148 4.628-4.88 9.882-6.251 11.043-6.399 0.393 0.325 1.019 1.403 1.331 1.942 0.274 0.472 0.511 0.881 0.757 1.21 0.526 0.703 1.515 0.868 2.241 0.371 0.604-0.413 1.324-1.176 2.319-2.233 1.294-1.372 4.726-5.016 6.044-4.754 0.19 0.039 0.432 0.387 0.624 0.891 0.027 0.109 0.021 0.439 0.016 0.656-0.017 0.818-0.049 2.342 1.308 3.141 1.58 0.931 3.349-0.477 6.025-2.604 1.178-0.935 3.147-2.5 3.851-2.642 0.6-0.123 0.779-0.16 1.327 1.18 0.203 0.495 0.633 0.86 1.155 0.979 1.377 0.316 3.096-0.622 6.008-2.305 0.714-0.414 1.725-0.997 2.535-1.404-0.262 0.765-0.496 1.825 0.147 2.846 0.317 0.499 0.812 0.84 1.398 0.959 1.408 0.289 2.915-0.695 5.456-2.454 0.459-0.318 1.062-0.735 1.631-1.101-0.099 0.398-0.201 0.809-0.302 1.206-1.284 5.138-2.182 8.893-2.034 10.411 0.077 0.792 0.268 1.578 0.518 2.342-1.675-1.002-3.583-1.524-5.677-1.222-1.18 0.17-2.325 0.668-3.379 1.452-1.541-1.364-3.285-2.314-5.158-2.481-4.594-0.411-10.566-0.412-14.952 1.486-1.987-1.58-4.941-1.796-8.208-0.576-5.852 2.186-9.76 5.959-11.616 11.216-4.686 13.274 5.215 32.351 9.747 40.022-0.164 1.434-0.124 2.876 0.167 4.269 0.791 3.781 4.143 10.188 17.713 10.63 16.722 0.545 22.231-6.685 22.858-11.04 0.339-2.355-0.765-3.736-2.013-4.06-1.087-0.281-4.48-0.328-12.545-0.372-7.308-0.041-19.064-0.107-22.618-0.773 1-3.952 3.772-7.497 6.152-8.631 1.762-0.844 2.623-0.134 3.116 0.473 0.646 0.792 1.375 0.934 1.863 0.939 1.077-0.021 1.734-0.803 2.146-1.342 0.404 0.174 0.913 0.562 1.444 0.966 1.293 0.984 3.066 2.335 5.648 2.366 1.396-0.012 2.551-0.383 3.365-1.188 1.332-1.316 1.442-3.296 1.442-5.379 0-2.181-0.385-4.188-0.757-6.127l-0.197-1.041c-0.765-4.127-1.848-8.546-3.217-13.135-0.281-0.939-0.59-1.899-0.901-2.862-0.438-1.356-0.891-2.758-1.247-4.074-0.231-0.85-0.744-3.052-1.118-4.66-0.191-0.825-0.347-1.49-0.408-1.738-0.221-0.879-1.112-1.414-1.991-1.193-0.88 0.22-1.414 1.112-1.193 1.991 0.06 0.241 0.21 0.885 0.396 1.684 0.381 1.633 0.9 3.869 1.147 4.776 0.377 1.39 0.841 2.83 1.29 4.222 0.304 0.939 0.606 1.877 0.879 2.794 1.338 4.477 2.395 8.78 3.136 12.792l0.201 1.062c0.358 1.872 0.699 3.64 0.699 5.508 0 0.901 0 2.581-0.468 3.044-0.209 0.205-0.678 0.239-1.019 0.239-1.496-0.018-2.566-0.832-3.7-1.694-1.138-0.868-2.422-1.863-4.105-1.72-0.722 0.055-1.21 0.481-1.562 0.894-1.704-1.469-3.945-1.686-6.301-0.563-2.839 1.354-5.578 4.587-7.119 8.388-4.623-8.42-11.58-23.769-7.835-34.374 1.539-4.357 4.702-7.378 9.669-9.233 0.633-0.237 2.413-0.813 3.896-0.457-2.427 2.45-5.893 8.44-5.435 12.451 0.201 1.769 1.147 3.108 2.663 3.77 2.727 1.193 6.862 0.501 8.436-2.391 0.894-1.645 1.177-4.261 0.842-7.779-0.061-0.642-0.354-3.16-1.345-5.357 3.003-1.086 7.366-1.424 12.663-0.952 0.985 0.088 2.072 0.639 3.16 1.577-0.101 0.141-0.199 0.284-0.297 0.43-2.025 3.06-2.879 7.052-2.12 9.932 0.317 1.204 1.155 2.146 2.425 2.726 2.276 1.041 5.57 0.713 7.439-0.207 0.839-0.411 1.736-1.451 1.249-4.067-0.438-2.36-1.95-5.873-4.165-8.749 0.525-0.341 1.066-0.557 1.606-0.634 3.628-0.533 6.886 3.368 8.464 6.87 0.006 0.017 0.014 0.033 0.021 0.05 0.19 0.426 0.356 0.847 0.494 1.253C82.27 36.925 93.027 81.749 74.902 90.58zM66.648 23.53c2.244 3.174 3.165 6.318 3.199 7.445-1.197 0.403-3.087 0.494-4.19-0.011-0.525-0.24-0.593-0.493-0.613-0.576-0.498-1.885 0.133-4.781 1.502-7.002C66.58 23.434 66.615 23.482 66.648 23.53zM46.081 31.805c-0.652 1.199-2.913 1.53-4.238 0.952-0.32-0.14-0.628-0.374-0.715-1.133-0.313-2.747 2.631-7.936 4.467-9.747 0.484 1.192 0.819 2.716 0.944 4.03C46.796 28.601 46.624 30.806 46.081 31.805zM39.57 70.049c3.103 0.547 9.463 0.748 22.979 0.823 4.6 0.025 9.753 0.055 11.355 0.212 0.026 0.468-0.139 1.45-0.95 2.659-1.315 1.952-5.758 6.445-18.579 6.037-8.518-0.276-13.568-3.049-14.608-8.021C39.649 71.195 39.586 70.624 39.57 70.049z" fill="white"></path></svg></g></svg></g></svg></g><defs><mask></mask></defs></svg><rect width="395.52" height="68.17987409086071" fill="black" stroke="none" visibility="hidden"></rect></g></mask><linearGradient x1="0" x2="1" y1="0.5" y2="0.5" id="21b7a86f-5a22-4ae0-8397-0c250c33926a"><stop stop-color="#f00b51" offset="0"></stop><stop stop-color="#730062" offset="1"></stop></linearGradient><rect width="395.52" height="68.17987409086071" fill="url(#21b7a86f-5a22-4ae0-8397-0c250c33926a)" mask="url(#b1a59ccb-9403-4373-92da-4f48ab2b190b)" data-fill-palette-color="accent"></rect></svg><rect width="395.52" height="68.17987409086071" fill="none" stroke="none" visibility="hidden"></rect></g></svg></g></svg>